<svg xmlns="http://www.w3.org/2000/svg" width="290.589" height="376.557" viewBox="0 0 290.589 376.557">
  <path id="Union_2" data-name="Union 2" d="M133.877,376.557a2.239,2.239,0,0,1-2.239-2.239V206.457H53.73V374.318a2.239,2.239,0,0,1-2.239,2.239H2.239A2.239,2.239,0,0,1,0,374.318V2.239A2.239,2.239,0,0,1,2.239,0H288.126a2.239,2.239,0,0,1,2.239,2.239V51.491a2.239,2.239,0,0,1-2.239,2.239H53.73V170.637h234.4a2.239,2.239,0,0,1,2.239,2.239v31.342a2.239,2.239,0,0,1-2.239,2.239H167.458V264.62H288.35a2.239,2.239,0,0,1,2.239,2.239V298.2a2.239,2.239,0,0,1-2.239,2.239H167.458v73.879a2.239,2.239,0,0,1-2.239,2.239Z"/>

</svg>
