<svg xmlns="http://www.w3.org/2000/svg" width="122" height="154" viewBox="0 0 122 154">
  <g id="Group_113" data-name="Group 113" transform="translate(1290.5 1457.5)">
    <path id="Rectangle_96" data-name="Rectangle 96" d="M18,0h99a0,0,0,0,1,0,0V149a0,0,0,0,1,0,0H18A18,18,0,0,1,0,131V18A18,18,0,0,1,18,0Z" transform="translate(-1288 -1455)" fill="none" stroke="#000" stroke-linecap="round" stroke-linejoin="round" stroke-width="5"/>
    <path id="Rectangle_97" data-name="Rectangle 97" d="M18,0h99a0,0,0,0,1,0,0V36a0,0,0,0,1,0,0H18A18,18,0,0,1,0,18v0A18,18,0,0,1,18,0Z" transform="translate(-1288 -1342)" fill="none" stroke="#000" stroke-linecap="round" stroke-linejoin="round" stroke-width="5"/>
    <path id="Path_44" data-name="Path 44" d="M-1264.283-1455v111.513" fill="none" stroke="#000" stroke-width="5"/>
    <path id="Path_45" data-name="Path 45" d="M-1264.283-1455v97.678" transform="translate(184.571 -2588.527) rotate(-90)" fill="none" stroke="#000" stroke-linecap="round" stroke-width="5"/>
  </g>
</svg>
