<svg xmlns="http://www.w3.org/2000/svg" width="152" height="152" viewBox="0 0 152 152">
  <g id="Group_127" data-name="Group 127" transform="translate(1297 1285)">
    <path id="Path_38" data-name="Path 38" d="M-1263.088-1267.355v20.142" fill="none" stroke="#000" stroke-linecap="round" stroke-width="5"/>
    <path id="Path_39" data-name="Path 39" d="M-1275.719-1257.284v19.36" transform="translate(0 1.636)" fill="none" stroke="#000" stroke-linecap="round" stroke-width="5"/>
    <path id="Path_40" data-name="Path 40" d="M-1263.088-1267.355v20.142" transform="translate(-2444.807 -2414.643) rotate(180)" fill="none" stroke="#000" stroke-linecap="round" stroke-width="5"/>
    <path id="Path_41" data-name="Path 41" d="M-1275.719-1257.284v21" transform="translate(-2444.807 -2414.643) rotate(180)" fill="none" stroke="#000" stroke-linecap="round" stroke-width="5"/>
    <path id="Path_35" data-name="Path 35" d="M-1244.4-1276.658v88.522h-14.252" transform="translate(3 -1)" fill="none" stroke="#000" stroke-linecap="round" stroke-linejoin="round" stroke-width="5"/>
    <g id="Ellipse_10" data-name="Ellipse 10" transform="translate(-1273 -1198)" fill="none" stroke="#000" stroke-linecap="round" stroke-linejoin="round" stroke-width="5">
      <circle cx="9.5" cy="9.5" r="9.5" stroke="none"/>
      <circle cx="9.5" cy="9.5" r="7" fill="none"/>
    </g>
    <path id="Path_36" data-name="Path 36" d="M-1243.747-1276.658v89.895h-14.3" transform="translate(-2444.449 -2416.504) rotate(180)" fill="none" stroke="#000" stroke-linecap="round" stroke-linejoin="round" stroke-width="5"/>
    <g id="Ellipse_12" data-name="Ellipse 12" transform="translate(-1188 -1239)" fill="none" stroke="#000" stroke-linecap="round" stroke-linejoin="round" stroke-width="5">
      <circle cx="9.5" cy="9.5" r="9.5" stroke="none"/>
      <circle cx="9.5" cy="9.5" r="7" fill="none"/>
    </g>
    <path id="Path_37" data-name="Path 37" d="M-1204.623-1250.285l-15.363,8.876v64.866l-16.387,9.9" fill="none" stroke="#000" stroke-linecap="round" stroke-linejoin="round" stroke-width="5"/>
    <g id="Ellipse_11" data-name="Ellipse 11" transform="translate(-1253 -1173)" fill="none" stroke="#000" stroke-linecap="round" stroke-linejoin="round" stroke-width="5">
      <circle cx="9.5" cy="9.5" r="9.5" stroke="none"/>
      <circle cx="9.5" cy="9.5" r="7" fill="none"/>
    </g>
    <g id="Ellipse_13" data-name="Ellipse 13" transform="translate(-1207 -1264)" fill="none" stroke="#000" stroke-linecap="round" stroke-linejoin="round" stroke-width="5">
      <circle cx="9.5" cy="9.5" r="9.5" stroke="none"/>
      <circle cx="9.5" cy="9.5" r="7" fill="none"/>
    </g>
    <g id="Ellipse_14" data-name="Ellipse 14" transform="translate(-1279 -1229)" fill="none" stroke="#000" stroke-linecap="round" stroke-linejoin="round" stroke-width="5">
      <circle cx="9.5" cy="9.5" r="9.5" stroke="none"/>
      <circle cx="9.5" cy="9.5" r="7" fill="none"/>
    </g>
    <path id="Path_42" data-name="Path 42" d="M-1292.818-1219.5h13.737" fill="none" stroke="#000" stroke-linecap="round" stroke-width="5"/>
    <g id="Ellipse_15" data-name="Ellipse 15" transform="translate(-1179 -1210)" fill="none" stroke="#000" stroke-linecap="round" stroke-linejoin="round" stroke-width="5">
      <circle cx="9.5" cy="9.5" r="9.5" stroke="none"/>
      <circle cx="9.5" cy="9.5" r="7" fill="none"/>
    </g>
    <path id="Path_43" data-name="Path 43" d="M-1148.482-1202.469H-1160.6" transform="translate(0 2)" fill="none" stroke="#000" stroke-linecap="round" stroke-width="5"/>
    <g id="Ellipse_26" data-name="Ellipse 26" transform="translate(-1297 -1285)" fill="none" stroke="#000" stroke-width="5">
      <circle cx="76" cy="76" r="76" stroke="none"/>
      <circle cx="76" cy="76" r="73.5" fill="none"/>
    </g>
  </g>
</svg>
